<svg width="24" height="20" viewBox="0 0 24 20" fill="none" xmlns="http://www.w3.org/2000/svg">
<path d="M24 2.25C23.1 2.7 22.2 2.85 21.15 3C22.2 2.4 22.95 1.5 23.25 0.3C22.35 0.899999 21.3 1.2 20.1 1.5C19.2 0.6 17.85 0 16.5 0C13.35 0 10.95 3 11.7 6C7.65 5.85 4.05 3.9 1.5 0.9C0.15 3.15 0.9 6 3 7.5C2.25 7.5 1.5 7.2 0.75 6.9C0.75 9.15 2.4 11.25 4.65 11.85C3.9 12 3.15 12.15 2.4 12C3 13.95 4.8 15.45 7.05 15.45C5.25 16.8 2.55 17.55 0 17.25C2.25 18.6 4.8 19.5 7.5 19.5C16.65 19.5 21.75 11.85 21.45 4.8C22.5 4.2 23.4 3.3 24 2.25Z" fill="#FFB800"/>
</svg>
